<?xml version="1.0" encoding="UTF-8"?>
<svg xmlns="http://www.w3.org/2000/svg" version="1.1" viewBox="0 0 304.4 65.1">
  <defs>
    <style>
      .cls-1, .cls-2, .cls-3 {
        fill-rule: evenodd;
      }

      .cls-1, .cls-4 {
        fill: #ed1c24;
      }

      .cls-2 {
        fill: #65ee85;
      }

      .cls-5, .cls-3 {
        fill: #17568b;
      }
    </style>
  </defs>
  <!-- Generator: Adobe Illustrator 28.6.0, SVG Export Plug-In . SVG Version: 1.2.0 Build 709)  -->
  <g>
    <g id="Layer_1">
      <g>
        <g>
          <g>
            <path class="cls-5" d="M8.8,24.6c-2.9-.9-5-2-6.3-3.3-1.3-1.2-1.9-2.8-1.9-4.6s.8-3.6,2.3-5.1c1.9-1.9,4.3-2.8,7.3-2.8h0c3.2,0,5.6,1,7.4,2.9.7.8,1.3,1.7,1.6,2.7.4,1,.6,1.9.7,2.5,0,.6.1,1.2,0,1.8h-4.5s0-.2,0-.5c0-.3,0-.7-.1-1,0-.4-.2-.8-.4-1.2-.2-.5-.5-.9-.8-1.2-.8-.9-2.2-1.4-4.1-1.4h0c-1.8,0-3.2.5-4.2,1.5s-1,1.3-1,1.9,0,.5,0,.7c0,.2.2.5.5.8.3.3.8.7,1.6,1.1.8.4,1.7.7,2.9,1.1l.9.3c.8.3,1.4.4,1.8.6.4.1,1,.3,1.7.6.7.3,1.3.5,1.7.8.4.2.9.5,1.4.9.5.4.9.7,1.2,1.1.3.4.5.8.8,1.3.2.5.4,1,.4,1.6,0,.4,0,.8,0,1.2,0,.4-.2,1.1-.5,1.9-.3.8-.8,1.5-1.4,2.2-1.7,1.9-4.3,2.8-7.8,2.8s-5.2-.9-7-2.8c-.9-.9-1.6-1.9-2-3.1-.5-1.2-.7-2.4-.7-3.7h4.5c0,1.5.4,2.7,1.4,3.7,1,1,2.3,1.5,3.9,1.5s3.7-.5,4.6-1.4c.2-.3.4-.5.5-.9.1-.3.2-.6.2-.7,0-.2,0-.3,0-.3,0-.7-2-1.7-5.9-2.9l-1-.3Z"/>
            <path class="cls-5" d="M24.9,14c-.5,0-.9-.1-1.3-.3-.4-.2-.7-.5-.9-.9-.2-.4-.3-.8-.3-1.3,0-.7.3-1.3.8-1.8s1.1-.8,1.8-.8,1.3.3,1.8.8c.5.5.8,1.1.8,1.8s-.3,1.3-.8,1.8c-.5.5-1.1.8-1.8.8ZM27.1,35.6h-4.4V15.1h4.4v20.5Z"/>
            <path class="cls-5" d="M34.8,35.6h-4.4V8.8h4.4v26.7Z"/>
            <path class="cls-5" d="M40.3,14c-.5,0-.9-.1-1.3-.3-.4-.2-.7-.5-.9-.9-.2-.4-.3-.8-.3-1.3,0-.7.3-1.3.8-1.8s1.1-.8,1.8-.8,1.3.3,1.8.8c.5.5.8,1.1.8,1.8s-.3,1.3-.8,1.8c-.5.5-1.1.8-1.8.8ZM42.4,35.6h-4.4V15.1h4.4v20.5Z"/>
            <path class="cls-5" d="M61.5,15.1h4.8l-8.6,20.5h-4.8l-8.9-20.5h4.9l6.4,14.8,6.3-14.8Z"/>
            <path class="cls-5" d="M67.9,15.1h10.3v4.5h-5.9v16h-4.4V15.1Z"/>
            <path class="cls-5" d="M82.2,14c-.5,0-.9-.1-1.3-.3-.4-.2-.7-.5-.9-.9-.2-.4-.3-.8-.3-1.3,0-.7.3-1.3.8-1.8s1.1-.8,1.8-.8,1.3.3,1.8.8c.5.5.8,1.1.8,1.8s-.3,1.3-.8,1.8c-.5.5-1.1.8-1.8.8ZM84.4,35.6h-4.4V15.1h4.4v20.5Z"/>
            <path class="cls-4" d="M108.8,28.3c0,2.1-.7,3.9-2.1,5.2-1.4,1.4-3.2,2-5.5,2h-13.5V8.8h12.6c1.5,0,2.8.3,3.9.9,1.2.6,2.1,1.5,2.7,2.6.7,1.1,1,2.4,1,3.8s-.1,1.7-.4,2.4c-.3.8-.6,1.4-1.1,2-.5.6-1,1-1.7,1.3,1.2.5,2.2,1.3,2.9,2.5.7,1.2,1.1,2.5,1.1,4ZM92.3,12.7v7h9.4c1-.7,1.5-1.7,1.5-3.2s-.3-2.1-1-2.8c-.7-.7-1.6-1-2.7-1h-7.1ZM92.3,31.7h8.1c1.1,0,2.1-.3,2.7-1,.7-.7,1-1.6,1-2.8s-.2-1.7-.7-2.3c-.5-.6-1.1-1.1-1.9-1.3h-9.2v7.4Z"/>
            <path class="cls-4" d="M113.5,14c-.5,0-.9-.1-1.3-.3-.4-.2-.7-.5-.9-.9-.2-.4-.3-.8-.3-1.3,0-.7.3-1.3.8-1.8.5-.5,1.1-.8,1.8-.8s1.3.3,1.8.8c.5.5.8,1.1.8,1.8s-.3,1.3-.8,1.8c-.5.5-1.1.8-1.8.8ZM115.7,35.6h-4.4V15.1h4.4v20.5Z"/>
            <path class="cls-4" d="M118.9,15.1h10.3v4.5h-5.9v16h-4.4V15.1Z"/>
            <path class="cls-4" d="M135.4,35.6h-4.4V8.8h4.4v26.7Z"/>
            <path class="cls-4" d="M140.9,14c-.5,0-.9-.1-1.3-.3-.4-.2-.7-.5-.9-.9-.2-.4-.3-.8-.3-1.3,0-.7.3-1.3.8-1.8.5-.5,1.1-.8,1.8-.8s1.3.3,1.8.8c.5.5.8,1.1.8,1.8s-.3,1.3-.8,1.8c-.5.5-1.1.8-1.8.8ZM143,35.6h-4.4V15.1h4.4v20.5Z"/>
            <path class="cls-4" d="M166,15.1l-9.2,8.8,8,11.7h-5.4l-5.8-8.6-2.8,2.6v6h-4.4V8.8h4.4v15.3l9.7-9.1h5.6Z"/>
            <path class="cls-4" d="M173,31.1h1.8v4.5h-1.8c-1.6,0-2.9-.6-4.1-1.7-1.1-1.1-1.7-2.5-1.7-4.1V10.9h4.5v5.4h2.9v4.5h-2.9v9.2c0,.2,0,.4.2.6s.3.3.5.5c.2.1.4.2.6.2Z"/>
            <path class="cls-4" d="M195,26.9h-14.6c.3,1.3.9,2.4,1.9,3.3,1,.9,2,1.3,3.3,1.3s1.8-.2,2.6-.7c.8-.5,1.4-1.2,1.9-2h4.6c-.6,2.1-1.8,3.7-3.4,5-1.7,1.3-3.5,1.9-5.7,1.9s-4.9-1-6.7-3c-1.9-2-2.8-4.4-2.8-7.1s.9-5.2,2.8-7.1c1.9-2,4.1-3,6.7-3s4,.6,5.7,1.9c1.7,1.3,2.8,3,3.4,5,.3,1,.5,2,.5,3.1s0,.9,0,1.3ZM181.1,22.4h8.9c-.3-.6-.7-1-1.1-1.5-.5-.4-1-.7-1.5-1-.6-.2-1.2-.3-1.8-.3-.9,0-1.8.2-2.5.7-.8.5-1.4,1.2-1.9,2Z"/>
            <path class="cls-5" d="M223.3,35.5h-5l-1.3-3.1s0,0,0,0c0,0,0,0,0,0-2.3,2-4.9,3-7.9,3s-4.4-.6-6.3-1.8c-1.9-1.2-3.5-2.8-4.6-4.9-1.1-2.1-1.7-4.3-1.7-6.7s.6-4.7,1.7-6.7c1.1-2.1,2.6-3.7,4.6-4.9,1.9-1.2,4-1.8,6.3-1.8s5,.8,7.2,2.4c2.1,1.6,3.7,3.7,4.6,6.2h-4.9c-.7-1.3-1.7-2.3-2.9-3.1-1.2-.8-2.5-1.1-4-1.1-2.2,0-4.2.9-5.7,2.6-1.6,1.7-2.4,3.9-2.4,6.3s.8,4.6,2.4,6.3c1.6,1.7,3.5,2.6,5.7,2.6s4.4-1,6-2.9h0c0,0,0,0,0-.1l-2.6-5.8h4.9l5.9,13.3Z"/>
            <path class="cls-5" d="M277.5,15.1v5.5l-10.1,10.5h10.1v4.5h-15.4v-5.5l10.1-10.5h-10.1v-4.5h15.4Z"/>
            <path class="cls-5" d="M297.9,26.9h-14.6c.3,1.3.9,2.4,1.9,3.3,1,.9,2,1.3,3.3,1.3s1.8-.2,2.6-.7c.8-.5,1.4-1.2,1.9-2h4.6c-.6,2.1-1.8,3.7-3.4,5-1.7,1.3-3.5,1.9-5.7,1.9s-4.9-1-6.7-3c-1.9-2-2.8-4.4-2.8-7.1s.9-5.2,2.8-7.1c1.9-2,4.1-3,6.7-3s4,.6,5.7,1.9c1.7,1.3,2.8,3,3.4,5,.3,1,.5,2,.5,3.1s0,.9,0,1.3ZM284,22.4h8.9c-.3-.6-.7-1-1.1-1.5-.5-.4-1-.7-1.5-1-.6-.2-1.2-.3-1.8-.3-.9,0-1.8.2-2.5.7-.8.5-1.4,1.2-1.9,2Z"/>
            <path class="cls-5" d="M304.7,35.6h-4.4V8.8h4.4v26.7Z"/>
          </g>
          <g>
            <path class="cls-2" d="M248.9,28.2h0s0,0,0,0h0Z"/>
            <path class="cls-2" d="M253.3,25.1c0,0-.1,0-.2,0,0,0,.1,0,.2,0h0Z"/>
            <path class="cls-3" d="M248.3,29.2c-1.2.7-2.8,1.4-5.5,2.2-.4.1-.9.2-1.3.3-1,.1-2.1,0-2.9-.2-1.8-.5-1.2-1.6-2-2.8,0-.1-.2-.2-.4-.2-.2,0-.3.1-.4.2-.2.5,0,1.1,0,1.6-.8-.3-1.4-1.7-2.4-2-.2,0-.3,0-.4,0-.1,0-.2.2-.3.4-.1.6.3,1,.7,1.4,0,0,0,0,0,0-.4-.2-.9-.5-1.3-.6-.2,0-.4,0-.5.2-.1.2-.1.3,0,.5.2.6.6.8,1,1-.3,0-.7-.2-1-.1-.2,0-.3,0-.4.2-.1.1-.1.3-.1.4,0,.6.7.7,1.3.9-.4,0-.8,0-.9.4,0,0,0,0,0,0-.3-.2-.6-.3-.9-.5-1.1-.8-2.4-1.9-3.6-2.9-.1-.1-.3-.3-.4-.4-1.2-1.3-1.1-3.3.2-4.5,1.3-1.2,3.3-1.1,4.5.2,1.2,1.3,2.6,2.3,4.2,3.1,3.3,1.5,8.6,1.4,11.9-.2,0,0,2-1.6,2.9-1.7.3,0,.7,0,1.2-.1.3,0,.6,0,1-.2.5-.2,1-.2,1.1,0,0,.2,0,.3-.7.5-.4.1-1.1.4-1.4.5.4,0,2.6-.5,2.5.1,0,.3-.4.4-.7.4-.2,0-1.3.2-1.5.2.2.1,2.1-.2,2,.3,0,.4-2.1.6-2.5.7.5,0,1.6,0,1.7.2.2.3-.6.4-.9.4-.6,0-1.2.2-2,0-.9.1-1.4.1-1.7.1h0Z"/>
            <path class="cls-1" d="M233.3,33c-.7-.7-1.9-.5-2-1.2,0,0,0-.2,0-.2,0,0,.1-.1.2-.1.5,0,1.4.3,2.1.4-.6-.7-1.6-.6-1.9-1.6,0,0,0-.2,0-.3,0,0,.2-.1.3-.1.7,0,1.7,1,2.4,1.1-.5-.9-1.7-1.2-1.5-2.1,0,0,0-.2.1-.2,0,0,.2,0,.2,0,1,.3,1.6,2,2.7,2.1,0-.6-.3-1.4,0-1.8,0,0,0-.1.2-.1,0,0,.1,0,.2,0,.7,1.1.2,2.4,2.1,2.9,4.4,1.3,8.9-1.8,10-2.4.5,0,1,0,1.5,0,.8.1,1.3,0,2,0,.3,0,.9-.1,1-.5,0,0,0-.2,0-.3,0,0-.1-.1-.2-.2.5-.1,1-.3,1-.5,0-.2,0-.4-.3-.4.2,0,.4-.2.5-.5,0-.4-.4-.5-1-.5.3-.1.8-.3.6-.7-.2-.4-1-.2-1.3,0-.2,0-2.5,0-3,.3,1.4-1.4,2.4-2.8,3.1-5.3,0-.3.3-.7.5-.9.3-.3.7-.6,1.1-.8.7-.3,1.4-.3,2.2,0,1.6.6,2.5,2.4,1.9,4-1.3,3.7-3.7,6.9-6.9,9.1-3,2.1-6.6,3.4-10.4,3.5-1.4,0-2.7-.2-4.1-.6-1.6-.5-3.1-.8-4.7-1.3-.2,0-.3-.2-.5-.2,0,0,0-.1,0-.2.1-.4,1.1,0,1.7-.2h0Z"/>
            <path class="cls-3" d="M232.2,12.2c2.4,0,4.4,2,4.4,4.4s-2,4.4-4.4,4.4-4.4-2-4.4-4.4,2-4.4,4.4-4.4h0Z"/>
            <path class="cls-1" d="M249.3,8.8c2.4,0,4.4,2,4.4,4.4s-2,4.4-4.4,4.4-4.4-2-4.4-4.4,2-4.4,4.4-4.4h0Z"/>
          </g>
        </g>
        <g>
          <path class="cls-5" d="M50.9,49.5h-2.2v5.6h-.7v-5.6h-2.2v-.7h5.1v.7Z"/>
          <path class="cls-5" d="M56.8,55.2h-.8l-.7-1.8h-3.1l-.7,1.8h-.8l2.6-6.3h.9l2.6,6.3ZM52.5,52.7h2.6l-1.3-3.2-1.3,3.2Z"/>
          <path class="cls-5" d="M60.4,48.8c1.4,0,2.2.6,2.2,1.8s-.9,1.8-2.2,1.8h-.1l2.3,2.8h-.9l-2.2-2.8h-.8v2.8h-.7v-6.3h2.5ZM58.6,49.5v2.2h1.7c1,0,1.5-.4,1.5-1.1s-.5-1.1-1.5-1.1h-1.7Z"/>
          <path class="cls-5" d="M64.8,47.7c0,.3-.2.5-.5.5s-.5-.2-.5-.5.2-.5.5-.5.5.2.5.5ZM64.8,55.2h-.7v-6.3h.7v6.3Z"/>
          <path class="cls-5" d="M67.3,51.6h3.8v-2.8h.7v6.3h-.7v-2.8h-3.8v2.8h-.7v-6.3h.7v2.8Z"/>
          <path class="cls-5" d="M74.5,47.7c0,.3-.2.5-.5.5s-.5-.2-.5-.5.2-.5.5-.5.5.2.5.5ZM74.4,55.2h-.7v-6.3h.7v6.3Z"/>
          <path class="cls-5" d="M77,54.1l-.5,2.3h-.6l.3-2.3h.8Z"/>
          <path class="cls-5" d="M83.3,48.8c2.1,0,3.4,1.2,3.4,3.2s-1.3,3.2-3.4,3.2h-2.4v-6.3h2.4ZM81.6,49.5v5h1.7c1.7,0,2.6-1,2.6-2.5s-.9-2.5-2.6-2.5h-1.7Z"/>
          <path class="cls-5" d="M94.3,52c0,1.9-1.4,3.3-3.3,3.3s-3.3-1.4-3.3-3.3,1.4-3.3,3.3-3.3,3.3,1.4,3.3,3.3ZM88.5,52c0,1.5,1.1,2.6,2.5,2.6s2.5-1,2.5-2.6-1.1-2.6-2.5-2.6-2.5,1-2.5,2.6Z"/>
          <path class="cls-5" d="M101.1,49.8l-.5.5c-.4-.5-1.1-.9-1.9-.9-1.4,0-2.5,1-2.5,2.6s1.1,2.6,2.5,2.6,2.2-.8,2.3-2.1h-2v-.7h2.8c0,0,0,.1,0,.2,0,1.8-1.2,3.3-3.1,3.3s-3.2-1.2-3.2-3.3,1.4-3.3,3.3-3.3,1.9.4,2.5,1.1ZM97.6,47c.2.6.5.9,1,.9s.8-.3,1-.9l.5.2c-.2.8-.8,1.3-1.5,1.3s-1.3-.4-1.5-1.3l.5-.2Z"/>
          <path class="cls-5" d="M108.4,55.2h-.8l-.7-1.8h-3.1l-.7,1.8h-.8l2.6-6.3h.9l2.6,6.3ZM104,52.7h2.6l-1.3-3.2-1.3,3.2Z"/>
          <path class="cls-5" d="M113.5,50c-.5-.3-1.1-.6-1.9-.6s-1.6.4-1.6,1.1.5.9,1.5,1h.6c1,.2,2,.6,2,1.7s-1.1,1.9-2.5,1.9-1.9-.3-2.5-.8l.4-.6c.4.4,1.3.7,2.1.7s1.8-.4,1.8-1.2-.5-.9-1.5-1h-.6c-1.1-.2-1.9-.7-1.9-1.7s1.1-1.9,2.4-1.9,1.7.3,2.3.7l-.4.6Z"/>
          <path class="cls-5" d="M116.2,55.2h-.7v-6.3h.7v6.3Z"/>
          <path class="cls-5" d="M123,55.2h-.9l-2.5-6.3h.8l2.2,5.6,2.2-5.6h.8l-2.5,6.3Z"/>
          <path class="cls-5" d="M131.1,55.2h-4.5v-6.3h4.4v.7h-3.7v2.1h3.6v.7h-3.6v2.2h3.7v.7Z"/>
          <path class="cls-5" d="M136.6,52.3h-.8v2.8h-.7v-6.3h.7v2.8h.8l2.6-2.8h.9l-3,3.1,3.2,3.2h-1l-2.8-2.8Z"/>
          <path class="cls-5" d="M146.6,52.7c0,1.7-1.2,2.6-2.6,2.6s-2.6-.8-2.6-2.6v-3.9h.7v3.8c0,1.3.8,1.9,1.9,1.9s1.9-.6,1.9-1.9v-3.8h.7v3.9ZM143.5,47.7c0,.3-.2.5-.5.5s-.5-.2-.5-.5.2-.5.5-.5.5.2.5.5ZM145.4,47.7c0,.3-.2.5-.5.5s-.5-.2-.5-.5.2-.5.5-.5.5.2.5.5Z"/>
          <path class="cls-5" d="M152.7,55.2h-4.4v-6.3h.7v5.6h3.7v.7Z"/>
          <path class="cls-5" d="M157.6,49.5h-2.2v5.6h-.7v-5.6h-2.2v-.7h5.1v.7Z"/>
          <path class="cls-5" d="M163.9,52.7c0,1.7-1.2,2.6-2.6,2.6s-2.6-.8-2.6-2.6v-3.9h.7v3.8c0,1.3.8,1.9,1.9,1.9s1.9-.6,1.9-1.9v-3.8h.7v3.9ZM160.8,47.7c0,.3-.2.5-.5.5s-.5-.2-.5-.5.2-.5.5-.5.5.2.5.5ZM162.7,47.7c0,.3-.2.5-.5.5s-.5-.2-.5-.5.2-.5.5-.5.5.2.5.5Z"/>
          <path class="cls-5" d="M168.1,48.8c1.4,0,2.2.6,2.2,1.8s-.9,1.8-2.2,1.8h-.1l2.3,2.8h-.9l-2.2-2.8h-.8v2.8h-.7v-6.3h2.5ZM166.3,49.5v2.2h1.7c1,0,1.5-.4,1.5-1.1s-.5-1.1-1.5-1.1h-1.7Z"/>
          <path class="cls-5" d="M176.9,52.7c0,1.7-1.2,2.6-2.6,2.6s-2.6-.8-2.6-2.6v-3.9h.7v3.8c0,1.3.8,1.9,1.9,1.9s1.9-.6,1.9-1.9v-3.8h.7v3.9ZM173.8,47.7c0,.3-.2.5-.5.5s-.5-.2-.5-.5.2-.5.5-.5.5.2.5.5ZM175.6,47.7c0,.3-.2.5-.5.5s-.5-.2-.5-.5.2-.5.5-.5.5.2.5.5Z"/>
          <path class="cls-5" d="M181,52.5v2.7h-.7v-2.7l-2.5-3.7h.9l2,3,2-3h.8l-2.5,3.7Z"/>
          <path class="cls-5" d="M188.8,55.2h-4.4v-6.3h.7v5.6h3.7v.7Z"/>
          <path class="cls-5" d="M194.4,55.2h-4.5v-6.3h4.4v.7h-3.7v2.1h3.6v.7h-3.6v2.2h3.7v.7Z"/>
          <path class="cls-5" d="M199.1,51.6h3.8v-2.8h.7v6.3h-.7v-2.8h-3.8v2.8h-.7v-6.3h.7v2.8Z"/>
          <path class="cls-5" d="M210,55.2h-4.5v-6.3h4.4v.7h-3.7v2.1h3.6v.7h-3.6v2.2h3.7v.7Z"/>
          <path class="cls-5" d="M212.4,52.6v2.5h-.7v-6.3h2.4c1.4,0,2.2.7,2.2,1.9s-.8,1.9-2.2,1.9h-1.7ZM212.4,49.5v2.4h1.6c1,0,1.5-.4,1.5-1.2s-.5-1.2-1.5-1.2h-1.6Z"/>
          <path class="cls-5" d="M222.5,48.8c1.3,0,2.3.5,2.3,1.7s-.4,1.2-1,1.4c.6.2,1.1.7,1.1,1.5,0,1.2-.9,1.8-2.3,1.8h-2.6v-6.3h2.5ZM220.8,49.5v2.1h1.7c.9,0,1.5-.2,1.5-1.1s-.7-1-1.6-1h-1.7ZM220.8,52.3v2.2h1.8c1,0,1.6-.2,1.6-1.1s-.6-1.1-1.6-1.1h-1.8Z"/>
          <path class="cls-5" d="M227.2,47.7c0,.3-.2.5-.5.5s-.5-.2-.5-.5.2-.5.5-.5.5.2.5.5ZM227.1,55.2h-.7v-6.3h.7v6.3Z"/>
          <path class="cls-5" d="M231.4,48.8c1.4,0,2.2.6,2.2,1.8s-.9,1.8-2.2,1.8h-.1l2.3,2.8h-.9l-2.2-2.8h-.8v2.8h-.7v-6.3h2.5ZM229.7,49.5v2.2h1.7c1,0,1.5-.4,1.5-1.1s-.5-1.1-1.5-1.1h-1.7Z"/>
          <path class="cls-5" d="M239.5,55.2h-4.4v-6.3h.7v5.6h3.7v.7Z"/>
          <path class="cls-5" d="M241.4,47.7c0,.3-.2.5-.5.5s-.5-.2-.5-.5.2-.5.5-.5.5.2.5.5ZM241.3,55.2h-.7v-6.3h.7v6.3Z"/>
          <path class="cls-5" d="M244.6,52.3h-.8v2.8h-.7v-6.3h.7v2.8h.8l2.6-2.8h.9l-3,3.1,3.2,3.2h-1l-2.8-2.8Z"/>
          <path class="cls-5" d="M253.8,49.5h-2.2v5.6h-.7v-5.6h-2.2v-.7h5.1v.7Z"/>
          <path class="cls-5" d="M259.3,55.2h-4.5v-6.3h4.4v.7h-3.7v2.1h3.6v.7h-3.6v2.2h3.7v.7Z"/>
        </g>
      </g>
    </g>
  </g>
</svg>